<?xml version="1.0" encoding="UTF-8"?>
<!DOCTYPE svg PUBLIC "-//W3C//DTD SVG 1.1//EN" "http://www.w3.org/Graphics/SVG/1.1/DTD/svg11.dtd">
<svg xmlns="http://www.w3.org/2000/svg" version="1.1" width="512px" height="512px" style="shape-rendering:geometricPrecision; text-rendering:geometricPrecision; image-rendering:optimizeQuality; fill-rule:evenodd; clip-rule:evenodd" xmlns:xlink="http://www.w3.org/1999/xlink">
<g><path style="opacity:1" fill="#2b2b51" d="M 148.5,-0.5 C 189.5,-0.5 230.5,-0.5 271.5,-0.5C 271.5,9.5 271.5,19.5 271.5,29.5C 237.833,29.5 204.167,29.5 170.5,29.5C 163.167,29.5 155.833,29.5 148.5,29.5C 148.5,19.5 148.5,9.5 148.5,-0.5 Z"/></g>
<g><path style="opacity:1" fill="#191932" d="M 271.5,-0.5 C 330.5,-0.5 389.5,-0.5 448.5,-0.5C 448.5,9.5 448.5,19.5 448.5,29.5C 443.167,29.5 437.833,29.5 432.5,29.5C 378.833,29.5 325.167,29.5 271.5,29.5C 271.5,19.5 271.5,9.5 271.5,-0.5 Z"/></g>
<g><path style="opacity:1" fill="#f9f2f2" d="M 170.5,29.5 C 204.167,29.5 237.833,29.5 271.5,29.5C 271.5,86.8333 271.5,144.167 271.5,201.5C 237.833,201.5 204.167,201.5 170.5,201.5C 170.5,179.167 170.5,156.833 170.5,134.5C 170.5,113.167 170.5,91.8333 170.5,70.5C 170.5,56.8333 170.5,43.1667 170.5,29.5 Z"/></g>
<g><path style="opacity:1" fill="#e0e6ec" d="M 271.5,29.5 C 325.167,29.5 378.833,29.5 432.5,29.5C 432.5,86.8333 432.5,144.167 432.5,201.5C 378.833,201.5 325.167,201.5 271.5,201.5C 271.5,144.167 271.5,86.8333 271.5,29.5 Z"/></g>
<g><path style="opacity:1" fill="#2b2b50" d="M 170.5,70.5 C 170.5,91.8333 170.5,113.167 170.5,134.5C 119.167,134.5 67.8333,134.5 16.5,134.5C 37.2983,113.201 58.2983,92.0347 79.5,71C 109.832,70.5 140.165,70.3334 170.5,70.5 Z"/></g>
<g><path style="opacity:1" fill="#ced4e1" d="M 226.5,70.5 C 236.5,70.5 246.5,70.5 256.5,70.5C 256.5,80.5 256.5,90.5 256.5,100.5C 246.5,100.5 236.5,100.5 226.5,100.5C 226.5,90.5 226.5,80.5 226.5,70.5 Z"/></g>
<g><path style="opacity:1" fill="#c1c8d4" d="M 286.5,70.5 C 296.5,70.5 306.5,70.5 316.5,70.5C 316.5,80.5 316.5,90.5 316.5,100.5C 306.5,100.5 296.5,100.5 286.5,100.5C 286.5,90.5 286.5,80.5 286.5,70.5 Z"/></g>
<g><path style="opacity:1" fill="#c1c8d4" d="M 346.5,70.5 C 356.5,70.5 366.5,70.5 376.5,70.5C 376.5,80.5 376.5,90.5 376.5,100.5C 366.5,100.5 356.5,100.5 346.5,100.5C 346.5,90.5 346.5,80.5 346.5,70.5 Z"/></g>
<g><path style="opacity:1" fill="#ced4e1" d="M 226.5,131.5 C 236.5,131.5 246.5,131.5 256.5,131.5C 256.5,141.5 256.5,151.5 256.5,161.5C 246.5,161.5 236.5,161.5 226.5,161.5C 226.5,151.5 226.5,141.5 226.5,131.5 Z"/></g>
<g><path style="opacity:1" fill="#c1c8d4" d="M 286.5,131.5 C 296.5,131.5 306.5,131.5 316.5,131.5C 316.5,141.5 316.5,151.5 316.5,161.5C 306.5,161.5 296.5,161.5 286.5,161.5C 286.5,151.5 286.5,141.5 286.5,131.5 Z"/></g>
<g><path style="opacity:1" fill="#c1c8d4" d="M 346.5,131.5 C 356.5,131.5 366.5,131.5 376.5,131.5C 376.5,141.5 376.5,151.5 376.5,161.5C 366.5,161.5 356.5,161.5 346.5,161.5C 346.5,151.5 346.5,141.5 346.5,131.5 Z"/></g>
<g><path style="opacity:1" fill="#cdd3e0" d="M 16.5,134.5 C 67.8333,134.5 119.167,134.5 170.5,134.5C 170.5,156.833 170.5,179.167 170.5,201.5C 204.167,201.5 237.833,201.5 271.5,201.5C 325.167,201.5 378.833,201.5 432.5,201.5C 379.003,202.499 325.336,202.832 271.5,202.5C 207.5,202.5 143.5,202.5 79.5,202.5C 78.5007,282.665 78.1674,362.998 78.5,443.5C 142.833,443.5 207.167,443.5 271.5,443.5C 271.5,466.167 271.5,488.833 271.5,511.5C 186.167,511.5 100.833,511.5 15.5,511.5C 15.1671,385.666 15.5004,259.999 16.5,134.5 Z"/></g>
<g><path style="opacity:1" fill="#3e78fa" d="M 79.5,202.5 C 79.5,282.5 79.5,362.5 79.5,442.5C 143.5,442.5 207.5,442.5 271.5,442.5C 271.5,442.833 271.5,443.167 271.5,443.5C 207.167,443.5 142.833,443.5 78.5,443.5C 78.1674,362.998 78.5007,282.665 79.5,202.5 Z"/></g>
<g><path style="opacity:1" fill="#3270fa" d="M 79.5,202.5 C 143.5,202.5 207.5,202.5 271.5,202.5C 271.5,219.833 271.5,237.167 271.5,254.5C 266.5,254.5 261.5,254.5 256.5,254.5C 256.5,300.167 256.5,345.833 256.5,391.5C 261.5,391.5 266.5,391.5 271.5,391.5C 271.5,408.5 271.5,425.5 271.5,442.5C 207.5,442.5 143.5,442.5 79.5,442.5C 79.5,362.5 79.5,282.5 79.5,202.5 Z"/></g>
<g><path style="opacity:1" fill="#1f51c8" d="M 432.5,201.5 C 453.5,201.5 474.5,201.5 495.5,201.5C 495.5,282.167 495.5,362.833 495.5,443.5C 474.5,443.5 453.5,443.5 432.5,443.5C 378.833,443.5 325.167,443.5 271.5,443.5C 271.5,443.167 271.5,442.833 271.5,442.5C 271.5,425.5 271.5,408.5 271.5,391.5C 276.5,391.5 281.5,391.5 286.5,391.5C 286.5,345.833 286.5,300.167 286.5,254.5C 281.5,254.5 276.5,254.5 271.5,254.5C 271.5,237.167 271.5,219.833 271.5,202.5C 325.336,202.832 379.003,202.499 432.5,201.5 Z"/></g>
<g><path style="opacity:1" fill="#e1e6ed" d="M 271.5,254.5 C 276.5,254.5 281.5,254.5 286.5,254.5C 286.5,300.167 286.5,345.833 286.5,391.5C 281.5,391.5 276.5,391.5 271.5,391.5C 266.5,391.5 261.5,391.5 256.5,391.5C 256.5,345.833 256.5,300.167 256.5,254.5C 261.5,254.5 266.5,254.5 271.5,254.5 Z"/></g>
<g><path style="opacity:1" fill="#96affa" d="M 146.5,254.5 C 146.5,299.833 146.5,345.167 146.5,390.5C 163.833,390.5 181.167,390.5 198.5,390.5C 181.008,391.497 163.341,391.83 145.5,391.5C 145.168,345.664 145.501,299.997 146.5,254.5 Z"/></g>
<g><path style="opacity:1" fill="#f9f2f3" d="M 146.5,254.5 C 164.17,254.333 181.836,254.5 199.5,255C 219.193,259.026 231.36,270.859 236,290.5C 237.097,302.619 233.93,313.452 226.5,323C 241.505,344.911 239.171,364.911 219.5,383C 213.103,387.199 206.103,389.699 198.5,390.5C 181.167,390.5 163.833,390.5 146.5,390.5C 146.5,345.167 146.5,299.833 146.5,254.5 Z"/></g>
<g><path style="opacity:1" fill="#f9f3f2" d="M 257.5,255.5 C 262.167,255.5 266.833,255.5 271.5,255.5C 271.5,300.5 271.5,345.5 271.5,390.5C 266.833,390.5 262.167,390.5 257.5,390.5C 257.5,345.5 257.5,300.5 257.5,255.5 Z"/></g>
<g><path style="opacity:1" fill="#e0e6ec" d="M 314.5,254.5 C 324.172,254.334 333.839,254.5 343.5,255C 352.374,269.917 361.374,284.75 370.5,299.5C 379.626,284.75 388.626,269.917 397.5,255C 407.161,254.5 416.828,254.334 426.5,254.5C 426.5,299.833 426.5,345.167 426.5,390.5C 416.833,390.5 407.167,390.5 397.5,390.5C 397.667,365.164 397.5,339.831 397,314.5C 396.487,315.527 395.987,316.527 395.5,317.5C 387.429,331.306 379.096,344.972 370.5,358.5C 361.904,344.972 353.571,331.306 345.5,317.5C 345.013,316.527 344.513,315.527 344,314.5C 343.5,339.831 343.333,365.164 343.5,390.5C 333.833,390.5 324.167,390.5 314.5,390.5C 314.5,345.167 314.5,299.833 314.5,254.5 Z"/></g>
<g><path style="opacity:1" fill="#3571fa" d="M 176.5,284.5 C 183.508,284.334 190.508,284.5 197.5,285C 207.177,289.724 208.843,296.391 202.5,305C 200.35,306.411 198.016,307.245 195.5,307.5C 189.167,307.5 182.833,307.5 176.5,307.5C 176.5,299.833 176.5,292.167 176.5,284.5 Z"/></g>
<g><path style="opacity:1" fill="#acc0f5" d="M 176.5,284.5 C 176.5,292.167 176.5,299.833 176.5,307.5C 182.833,307.5 189.167,307.5 195.5,307.5C 189.021,308.491 182.354,308.824 175.5,308.5C 175.174,300.316 175.508,292.316 176.5,284.5 Z"/></g>
<g><path style="opacity:1" fill="#5176ce" d="M 345.5,317.5 C 344.833,342.167 344.167,366.833 343.5,391.5C 343.5,391.167 343.5,390.833 343.5,390.5C 343.333,365.164 343.5,339.831 344,314.5C 344.513,315.527 345.013,316.527 345.5,317.5 Z"/></g>
<g><path style="opacity:1" fill="#5176ce" d="M 397.5,390.5 C 397.5,390.833 397.5,391.167 397.5,391.5C 396.833,366.833 396.167,342.167 395.5,317.5C 395.987,316.527 396.487,315.527 397,314.5C 397.5,339.831 397.667,365.164 397.5,390.5 Z"/></g>
<g><path style="opacity:1" fill="#91acf9" d="M 197.5,338.5 C 190.5,338.5 183.5,338.5 176.5,338.5C 176.5,345.833 176.5,353.167 176.5,360.5C 183.5,360.5 190.5,360.5 197.5,360.5C 190.352,361.492 183.019,361.825 175.5,361.5C 175.5,353.5 175.5,345.5 175.5,337.5C 183.019,337.175 190.352,337.508 197.5,338.5 Z"/></g>
<g><path style="opacity:1" fill="#3471fa" d="M 197.5,338.5 C 206.138,342.116 208.304,348.116 204,356.5C 202.362,358.734 200.195,360.067 197.5,360.5C 190.5,360.5 183.5,360.5 176.5,360.5C 176.5,353.167 176.5,345.833 176.5,338.5C 183.5,338.5 190.5,338.5 197.5,338.5 Z"/></g>
<g><path style="opacity:1" fill="#9cafdf" d="M 314.5,254.5 C 314.5,299.833 314.5,345.167 314.5,390.5C 324.167,390.5 333.833,390.5 343.5,390.5C 343.5,390.833 343.5,391.167 343.5,391.5C 333.5,391.5 323.5,391.5 313.5,391.5C 313.168,345.664 313.501,299.997 314.5,254.5 Z"/></g>
<g><path style="opacity:1" fill="#9aafdd" d="M 426.5,254.5 C 427.499,299.997 427.832,345.664 427.5,391.5C 417.5,391.5 407.5,391.5 397.5,391.5C 397.5,391.167 397.5,390.833 397.5,390.5C 407.167,390.5 416.833,390.5 426.5,390.5C 426.5,345.167 426.5,299.833 426.5,254.5 Z"/></g>
<g><path style="opacity:1" fill="#c0c8d3" d="M 271.5,443.5 C 325.167,443.5 378.833,443.5 432.5,443.5C 432.5,466.167 432.5,488.833 432.5,511.5C 378.833,511.5 325.167,511.5 271.5,511.5C 271.5,488.833 271.5,466.167 271.5,443.5 Z"/></g>
</svg>
