
<!-- Generator: visioncortex VTracer 0.6.4 -->
<svg version="1.1" xmlns="http://www.w3.org/2000/svg" viewBox="0 0 600 600" preserveAspectRatio="xMidYMid meet">
<path d="M0 0 C198 0 396 0 600 0 C600 198 600 396 600 600 C402 600 204 600 0 600 C0 402 0 204 0 0 Z " fill="#FEFEFE" transform="translate(0,0)"/>
<path d="M0 0 C1.177 -0.009 2.353 -0.018 3.566 -0.027 C7.44 -0.048 11.313 -0.026 15.188 -0.001 C17.89 0 20.592 -0.006 23.295 -0.011 C28.953 -0.018 34.61 0 40.269 0.033 C46.791 0.071 53.313 0.069 59.835 0.046 C66.132 0.025 72.429 0.033 78.727 0.052 C81.396 0.06 84.065 0.057 86.734 0.048 C90.471 0.04 94.205 0.065 97.941 0.098 C99.037 0.089 100.133 0.081 101.262 0.072 C108.255 0.178 113.421 1.441 119.035 5.76 C122.868 10 124.155 14.262 124.189 19.889 C124.198 20.95 124.207 22.011 124.215 23.104 C124.222 24.851 124.222 24.851 124.228 26.632 C124.236 27.859 124.245 29.085 124.253 30.348 C124.278 34.417 124.295 38.485 124.309 42.553 C124.314 43.956 124.32 45.358 124.325 46.761 C124.347 52.597 124.365 58.433 124.377 64.269 C124.393 72.621 124.426 80.974 124.483 89.327 C124.522 95.205 124.541 101.084 124.547 106.963 C124.55 110.471 124.562 113.978 124.595 117.486 C124.63 121.405 124.626 125.323 124.619 129.242 C124.635 130.396 124.652 131.55 124.669 132.739 C124.615 139.703 123.636 144.401 119.035 149.76 C114.643 153.832 111.043 156.009 105.018 156.015 C104.001 156.021 102.983 156.027 101.935 156.033 C100.262 156.027 100.262 156.027 98.554 156.021 C96.774 156.027 96.774 156.027 94.958 156.033 C91.662 156.041 88.367 156.041 85.072 156.037 C81.518 156.034 77.965 156.043 74.411 156.051 C67.448 156.063 60.485 156.065 53.522 156.063 C47.863 156.061 42.203 156.063 36.543 156.067 C35.738 156.068 34.933 156.068 34.104 156.069 C32.468 156.07 30.833 156.071 29.198 156.073 C13.853 156.083 -1.491 156.081 -16.835 156.075 C-30.872 156.07 -44.909 156.081 -58.946 156.1 C-73.358 156.12 -87.769 156.128 -102.18 156.124 C-110.272 156.122 -118.363 156.125 -126.455 156.139 C-133.344 156.151 -140.234 156.152 -147.124 156.14 C-150.638 156.134 -154.153 156.133 -157.668 156.145 C-161.479 156.158 -165.291 156.147 -169.102 156.135 C-170.211 156.142 -171.321 156.149 -172.463 156.157 C-179.271 156.109 -184.291 155.488 -189.89 151.331 C-190.348 150.854 -190.806 150.377 -191.277 149.885 C-191.748 149.414 -192.218 148.942 -192.703 148.456 C-195.964 144.074 -196.223 139.854 -196.255 134.511 C-196.262 133.8 -196.269 133.088 -196.275 132.356 C-196.294 130.014 -196.298 127.673 -196.301 125.331 C-196.307 123.696 -196.314 122.06 -196.321 120.425 C-196.333 117.001 -196.336 113.576 -196.335 110.152 C-196.335 105.775 -196.362 101.398 -196.397 97.022 C-196.419 93.645 -196.423 90.268 -196.422 86.891 C-196.424 85.278 -196.433 83.665 -196.449 82.052 C-196.468 79.791 -196.462 77.53 -196.45 75.269 C-196.453 73.985 -196.456 72.701 -196.459 71.378 C-195.73 66.044 -193.361 61.345 -189.027 57.948 C-184.308 54.577 -180.722 53.512 -174.94 53.47 C-173.748 53.457 -172.557 53.444 -171.329 53.431 C-169.408 53.428 -169.408 53.428 -167.449 53.425 C-166.11 53.418 -164.771 53.411 -163.432 53.404 C-160.628 53.392 -157.824 53.389 -155.02 53.39 C-151.448 53.39 -147.877 53.363 -144.305 53.328 C-141.539 53.306 -138.773 53.302 -136.007 53.303 C-134.057 53.3 -132.107 53.278 -130.156 53.256 C-121.96 53.298 -115.23 54.167 -108.808 59.577 C-108.365 60.153 -107.921 60.729 -107.465 61.323 C-106.769 62.191 -106.769 62.191 -106.058 63.077 C-103.915 66.376 -103.846 69.424 -103.725 73.257 C-103.424 82.018 -102.179 88.378 -96.902 95.573 C-92.648 98.741 -88.008 100.227 -82.965 101.76 C-82.396 101.938 -81.828 102.115 -81.243 102.298 C-76.105 103.342 -70.717 102.987 -65.485 103.001 C-63.302 103.01 -61.119 103.041 -58.935 103.073 C-48.524 103.152 -38.806 102.368 -30.965 94.76 C-26.262 88.644 -24.846 83.888 -24.823 76.191 C-24.819 75.54 -24.816 74.889 -24.812 74.219 C-24.805 72.809 -24.8 71.399 -24.796 69.989 C-24.789 67.751 -24.773 65.514 -24.755 63.277 C-24.702 56.917 -24.654 50.557 -24.639 44.197 C-24.629 40.302 -24.599 36.407 -24.557 32.512 C-24.545 31.034 -24.54 29.556 -24.542 28.077 C-24.561 11.498 -24.561 11.498 -18.395 5.142 C-12.499 0.175 -7.522 -0.094 0 0 Z " fill="#1999FF" transform="translate(333.964599609375,280.239501953125)"/>
<path d="M0 0 C1.556 -0.011 1.556 -0.011 3.143 -0.021 C4.842 -0.018 4.842 -0.018 6.575 -0.014 C7.772 -0.019 8.97 -0.024 10.203 -0.029 C13.484 -0.041 16.765 -0.043 20.047 -0.041 C22.79 -0.04 25.533 -0.045 28.276 -0.049 C34.753 -0.061 41.23 -0.061 47.706 -0.055 C54.375 -0.049 61.043 -0.061 67.712 -0.083 C73.447 -0.1 79.181 -0.106 84.915 -0.103 C88.336 -0.101 91.757 -0.104 95.177 -0.118 C98.998 -0.13 102.817 -0.123 106.638 -0.112 C108.324 -0.123 108.324 -0.123 110.045 -0.135 C117.01 -0.088 123.268 0.33 128.889 4.909 C129.558 5.764 129.558 5.764 130.24 6.636 C130.933 7.483 130.933 7.483 131.639 8.347 C134.774 13.24 135.159 17.711 135.14 23.412 C135.145 24.219 135.15 25.027 135.155 25.858 C135.169 28.52 135.168 31.181 135.166 33.843 C135.17 35.7 135.174 37.557 135.179 39.414 C135.187 43.305 135.186 47.196 135.181 51.087 C135.175 56.06 135.192 61.033 135.215 66.006 C135.23 69.842 135.231 73.677 135.228 77.513 C135.228 79.346 135.234 81.179 135.244 83.011 C135.256 85.581 135.249 88.151 135.238 90.721 C135.245 91.47 135.253 92.219 135.261 92.99 C135.202 98.943 134.079 104.543 130.217 109.284 C129.362 109.953 129.362 109.953 128.49 110.636 C127.643 111.328 127.643 111.328 126.779 112.034 C122.785 114.594 119.245 115.51 114.528 115.548 C113.486 115.561 112.445 115.575 111.372 115.588 C110.257 115.594 109.143 115.599 107.994 115.604 C106.839 115.619 105.684 115.634 104.494 115.649 C100.805 115.695 97.117 115.729 93.428 115.761 C88.575 115.802 83.722 115.856 78.869 115.917 C77.757 115.922 76.644 115.928 75.498 115.933 C66.866 116.044 59.556 117.488 52.865 123.261 C48.176 129.601 45.742 134.897 45.739 142.808 C45.737 143.469 45.736 144.129 45.734 144.81 C45.73 146.244 45.728 147.678 45.727 149.112 C45.724 152.168 45.702 155.224 45.682 158.28 C45.644 163.968 45.613 169.655 45.615 175.342 C45.616 179.301 45.592 183.259 45.553 187.218 C45.543 188.721 45.541 190.225 45.549 191.728 C45.62 207.262 45.62 207.262 39.865 213.261 C34.4 217.523 30.211 218.423 23.451 218.464 C22.722 218.47 21.993 218.475 21.242 218.481 C19.697 218.491 18.152 218.497 16.607 218.501 C14.27 218.511 11.933 218.542 9.596 218.573 C-8.093 218.7 -8.093 218.7 -15.072 212.761 C-18.826 208.21 -19.426 205.387 -19.402 199.665 C-19.407 198.884 -19.411 198.103 -19.416 197.298 C-19.429 194.673 -19.427 192.048 -19.425 189.422 C-19.431 187.543 -19.438 185.664 -19.446 183.785 C-19.463 178.673 -19.468 173.561 -19.469 168.45 C-19.471 164.183 -19.478 159.916 -19.486 155.649 C-19.502 145.58 -19.507 135.512 -19.505 125.443 C-19.504 115.058 -19.525 104.674 -19.557 94.29 C-19.583 85.375 -19.594 76.461 -19.592 67.546 C-19.592 62.221 -19.598 56.897 -19.619 51.572 C-19.638 46.561 -19.638 41.551 -19.624 36.54 C-19.622 34.703 -19.626 32.867 -19.638 31.03 C-19.654 28.517 -19.645 26.005 -19.629 23.492 C-19.639 22.77 -19.65 22.048 -19.66 21.305 C-19.581 15.383 -17.814 10.1 -13.687 5.727 C-9.268 1.909 -5.825 0.013 0 0 Z " fill="#80E142" transform="translate(257.13470458984375,156.7393035888672)"/>
</svg>