<?xml version="1.0" standalone="no"?>
<!DOCTYPE svg PUBLIC "-//W3C//DTD SVG 20010904//EN"
 "http://www.w3.org/TR/2001/REC-SVG-20010904/DTD/svg10.dtd">
<svg version="1.0" xmlns="http://www.w3.org/2000/svg"
 width="512.000000pt" height="512.000000pt" viewBox="0 0 512.000000 512.000000"
 preserveAspectRatio="xMidYMid meet">

<g transform="translate(0.000000,512.000000) scale(0.100000,-0.100000)"
fill="#000000" stroke="none">
<path d="M1469 4725 c-39 -21 -49 -63 -49 -201 0 -68 -3 -124 -8 -124 -4 0
-46 39 -92 86 -101 102 -135 121 -182 100 -18 -7 -99 -81 -180 -163 -191 -193
-190 -183 -48 -328 55 -55 100 -104 100 -108 0 -4 -61 -7 -135 -7 -141 0 -185
-10 -199 -45 -3 -9 -6 -117 -6 -239 0 -248 2 -257 68 -276 20 -5 91 -10 156
-10 l119 0 -101 -104 c-145 -149 -148 -135 61 -343 206 -206 189 -203 332 -63
55 55 104 100 108 100 4 0 7 -56 7 -125 0 -135 12 -185 48 -204 13 -7 104 -11
245 -11 l225 0 26 31 c25 30 26 35 26 170 0 76 3 139 7 139 4 0 53 -45 108
-100 144 -141 140 -142 353 72 139 141 142 146 142 188 0 41 -4 47 -101 145
l-101 103 147 4 147 3 29 33 29 32 0 211 c0 222 -6 255 -49 279 -11 5 -81 10
-155 10 -103 0 -136 3 -136 13 0 7 43 55 95 107 89 88 95 97 95 135 0 39 -6
46 -157 197 -87 86 -168 159 -180 162 -37 11 -85 -19 -173 -108 -46 -47 -88
-86 -92 -86 -3 0 -8 65 -10 145 -4 203 14 189 -271 192 -180 2 -227 0 -248
-12z m331 -285 c0 -157 6 -167 116 -213 128 -54 130 -53 238 53 l92 89 67 -66
66 -67 -89 -92 c-106 -107 -106 -110 -55 -234 19 -46 35 -86 35 -88 0 -1 16
-10 35 -18 23 -9 71 -14 145 -14 l110 0 0 -95 0 -95 -124 0 c-150 0 -158 -5
-205 -120 -47 -113 -46 -118 59 -224 l90 -92 -70 -69 -70 -70 -88 87 c-48 48
-98 89 -112 92 -30 7 -183 -52 -214 -83 -19 -19 -21 -35 -24 -151 l-4 -130
-94 0 -94 0 0 120 c0 126 -9 161 -44 178 -94 47 -171 73 -195 67 -14 -3 -65
-45 -114 -93 l-87 -87 -67 68 -68 67 82 82 c89 90 107 121 93 165 -8 27 -41
106 -62 149 -17 35 -52 44 -178 44 l-120 0 0 95 0 95 113 0 c157 0 170 8 219
125 24 57 35 99 32 115 -3 14 -43 63 -90 110 -46 47 -84 90 -84 95 0 6 29 39
65 75 l65 64 93 -92 c69 -68 101 -92 120 -92 40 0 180 59 205 86 20 23 22 35
22 150 l0 124 95 0 95 0 0 -110z"/>
<path d="M1641 4069 c-116 -19 -226 -106 -280 -219 -22 -47 -26 -69 -26 -150
0 -83 3 -102 28 -156 17 -36 50 -82 80 -112 197 -194 520 -122 618 136 31 83
24 215 -15 292 -77 154 -236 236 -405 209z m169 -213 c98 -65 115 -194 37
-283 -39 -44 -82 -63 -142 -63 -58 0 -116 29 -152 76 -39 52 -45 145 -12 203
54 96 179 127 269 67z"/>
<path d="M3229 4345 c-56 -18 -132 -83 -162 -139 -20 -37 -23 -60 -27 -226
l-5 -185 -50 -3 c-72 -3 -92 -9 -115 -34 -22 -24 -27 -77 -9 -110 25 -46 46
-48 572 -48 l494 0 27 -26 26 -27 0 -918 0 -919 -1800 0 -1800 0 0 914 0 914
25 30 c18 21 37 32 69 36 74 11 113 75 82 135 -22 42 -50 54 -111 48 -99 -10
-177 -65 -228 -161 l-22 -41 -3 -1189 c-3 -1314 -6 -1251 61 -1337 17 -23 57
-56 87 -73 l55 -31 693 -3 692 -3 -1 -27 c0 -15 -12 -99 -27 -187 l-28 -160
-69 -5 c-102 -8 -135 -32 -135 -100 0 -22 9 -41 29 -61 l29 -29 602 0 602 0
29 29 c37 38 39 88 5 128 -21 25 -31 28 -100 31 -68 4 -77 6 -81 26 -9 41 -55
324 -55 340 0 15 23 16 228 14 l227 -3 5 -185 c6 -213 13 -236 96 -309 84 -74
60 -72 866 -69 l714 3 59 30 c37 19 72 46 92 73 67 88 63 -35 63 1882 0 1916
4 1794 -63 1881 -17 23 -57 56 -87 73 l-55 31 -725 2 c-604 2 -733 -1 -771
-12z m1482 -204 l29 -29 0 -1742 0 -1742 -29 -29 -29 -29 -697 0 c-458 0 -703
4 -716 10 -40 22 -49 61 -49 219 l0 150 373 3 372 3 50 27 c59 31 94 67 126
128 l24 45 3 658 3 657 160 0 161 0 29 29 c39 40 39 82 0 122 l-29 29 -161 0
-161 0 0 100 0 100 164 0 164 0 26 31 c35 41 34 83 -3 120 l-29 29 -162 0
-161 0 3 98 3 97 162 3 162 2 25 31 c35 41 34 83 -3 120 l-29 29 -161 0 -161
0 0 68 c0 105 -22 166 -83 227 -85 84 -91 85 -509 85 l-358 0 0 150 c0 158 8
196 47 219 12 7 261 10 716 11 l699 0 29 -29z m-731 -2784 l0 -163 -28 -27
-28 -27 -1743 0 -1743 0 -29 29 -29 29 0 161 0 161 1800 0 1800 0 0 -163z
m-1566 -574 c15 -93 30 -178 33 -190 l5 -23 -271 0 -271 0 5 23 c3 12 16 92
30 177 14 85 28 161 30 168 3 9 54 12 208 12 l204 0 27 -167z"/>
<path d="M3473 3310 c-12 -5 -53 -51 -92 -103 -434 -580 -1290 -946 -2390
-1021 -181 -13 -185 -13 -208 -40 -26 -31 -29 -65 -8 -105 25 -50 55 -55 242
-42 1154 81 2078 487 2523 1110 77 108 80 160 10 196 -33 17 -45 18 -77 5z"/>
<path d="M3449 2722 l-34 -30 0 -320 0 -320 24 -26 c13 -14 36 -28 52 -31 32
-7 83 16 99 44 6 12 10 138 10 335 0 312 0 315 -22 341 -14 15 -38 28 -59 31
-31 5 -42 1 -70 -24z"/>
<path d="M3065 2435 c-25 -24 -25 -26 -25 -203 0 -165 2 -181 20 -205 11 -14
33 -28 49 -32 34 -7 85 15 101 44 6 12 10 94 10 194 0 171 0 175 -25 201 -33
36 -95 37 -130 1z"/>
<path d="M2685 2245 c-23 -22 -25 -32 -25 -109 0 -75 3 -88 24 -113 19 -22 32
-28 66 -28 34 0 47 6 66 28 21 25 24 38 24 113 0 77 -2 87 -25 109 -18 19 -35
25 -65 25 -30 0 -47 -6 -65 -25z"/>
</g>
</svg>
