<?xml version="1.0" encoding="UTF-8"?>
<!DOCTYPE svg PUBLIC "-//W3C//DTD SVG 1.1//EN" "http://www.w3.org/Graphics/SVG/1.1/DTD/svg11.dtd">
<svg xmlns="http://www.w3.org/2000/svg" version="1.1" width="225px" height="225px" style="shape-rendering:geometricPrecision; text-rendering:geometricPrecision; image-rendering:optimizeQuality; fill-rule:evenodd; clip-rule:evenodd" xmlns:xlink="http://www.w3.org/1999/xlink">
<g><path style="opacity:1" fill="#c7c7c7" d="M -0.5,-0.5 C 74.5,-0.5 149.5,-0.5 224.5,-0.5C 224.5,74.5 224.5,149.5 224.5,224.5C 149.5,224.5 74.5,224.5 -0.5,224.5C -0.5,149.5 -0.5,74.5 -0.5,-0.5 Z"/></g>
<g><path style="opacity:1" fill="#f9f9f9" d="M 139.5,33.5 C 139.5,79.5 139.5,125.5 139.5,171.5C 121.711,178.648 103.378,180.315 84.5,176.5C 84.5,128.833 84.5,81.1667 84.5,33.5C 92.6612,29.7945 101.328,28.1278 110.5,28.5C 120.62,28.2605 130.286,29.9271 139.5,33.5 Z"/></g>
<g><path style="opacity:1" fill="#ba0100" d="M 142.5,34.5 C 157.15,40.3252 169.484,49.3252 179.5,61.5C 182.421,66.3413 185.088,71.3413 187.5,76.5C 188.702,92.185 188.369,107.852 186.5,123.5C 185.5,123.5 184.5,123.5 183.5,123.5C 182.355,129.458 179.855,134.791 176,139.5C 175.51,140.793 175.343,142.127 175.5,143.5C 174.325,143.281 173.325,143.614 172.5,144.5C 169.167,148.167 165.833,151.833 162.5,155.5C 161.675,156.386 160.675,156.719 159.5,156.5C 158.587,158.835 157.253,161.001 155.5,163C 150.701,165.686 145.701,167.852 140.5,169.5C 140.513,124.655 140.513,79.9886 140.5,35.5C 140.957,34.7025 141.624,34.3691 142.5,34.5 Z"/></g>
<g><path style="opacity:1" fill="#7878be" d="M 83.5,39.5 C 83.5,47.5 83.5,55.5 83.5,63.5C 81.8762,63.3601 80.7096,64.0267 80,65.5C 79.6667,64.5 79.3333,63.5 79,62.5C 67.8228,73.6772 56.9895,84.5105 46.5,95C 48.0194,97.6214 47.5194,99.7881 45,101.5C 44.0664,98.0352 42.5664,97.7019 40.5,100.5C 39.914,100.291 39.414,99.9574 39,99.5C 38.7489,101.433 38.2489,103.266 37.5,105C 37.9553,107.55 38.2886,110.384 38.5,113.5C 38.2914,114.922 37.7914,116.255 37,117.5C 36.5004,110.842 36.3337,104.175 36.5,97.5C 42.1934,70.1271 57.8601,50.7938 83.5,39.5 Z"/></g>
<g><path style="opacity:1" fill="#19148e" d="M 81.5,34.5 C 83.256,35.5521 83.9227,37.2188 83.5,39.5C 57.8601,50.7938 42.1934,70.1271 36.5,97.5C 33.6909,108.137 34.0242,118.804 37.5,129.5C 38.5219,134.254 39.8553,138.921 41.5,143.5C 38.9557,146.307 37.9557,145.64 38.5,141.5C 36.4862,141.608 34.8195,140.942 33.5,139.5C 21.6344,98.5952 32.9677,65.7619 67.5,41C 72.0683,38.5482 76.735,36.3815 81.5,34.5 Z"/></g>
<g><path style="opacity:1" fill="#6463b5" d="M 83.5,63.5 C 83.5,68.8333 83.5,74.1667 83.5,79.5C 82.8343,76.9723 82.1676,74.3056 81.5,71.5C 80.9843,75.0498 79.9843,78.3831 78.5,81.5C 76.694,82.8587 75.194,82.5254 74,80.5C 72.5806,81.4601 71.0806,82.2935 69.5,83C 70.5156,83.5194 71.1822,84.3527 71.5,85.5C 61.783,96.2086 51.783,106.709 41.5,117C 41.1667,117.167 40.8333,117.333 40.5,117.5C 39.8281,116.051 39.1614,114.718 38.5,113.5C 38.2886,110.384 37.9553,107.55 37.5,105C 38.2489,103.266 38.7489,101.433 39,99.5C 39.414,99.9574 39.914,100.291 40.5,100.5C 42.5664,97.7019 44.0664,98.0352 45,101.5C 47.5194,99.7881 48.0194,97.6214 46.5,95C 56.9895,84.5105 67.8228,73.6772 79,62.5C 79.3333,63.5 79.6667,64.5 80,65.5C 80.7096,64.0267 81.8762,63.3601 83.5,63.5 Z"/></g>
<g><path style="opacity:1" fill="#5352ae" d="M 83.5,79.5 C 83.5,84.8333 83.5,90.1667 83.5,95.5C 82.391,95.5569 81.391,95.8902 80.5,96.5C 79.9612,94.4951 79.2945,92.4951 78.5,90.5C 76.6841,91.8149 75.0175,93.3149 73.5,95C 74.1667,95.3333 74.8333,95.6667 75.5,96C 73.9849,98.6228 71.9849,99.6228 69.5,99C 62.6523,106.015 55.6523,112.848 48.5,119.5C 47.939,123.095 46.7724,126.428 45,129.5C 44.6667,127.833 44.3333,126.167 44,124.5C 41.6293,126.054 39.4626,127.721 37.5,129.5C 34.0242,118.804 33.6909,108.137 36.5,97.5C 36.3337,104.175 36.5004,110.842 37,117.5C 37.7914,116.255 38.2914,114.922 38.5,113.5C 39.1614,114.718 39.8281,116.051 40.5,117.5C 40.8333,117.333 41.1667,117.167 41.5,117C 51.783,106.709 61.783,96.2086 71.5,85.5C 71.1822,84.3527 70.5156,83.5194 69.5,83C 71.0806,82.2935 72.5806,81.4601 74,80.5C 75.194,82.5254 76.694,82.8587 78.5,81.5C 79.9843,78.3831 80.9843,75.0498 81.5,71.5C 82.1676,74.3056 82.8343,76.9723 83.5,79.5 Z"/></g>
<g><path style="opacity:1" fill="#121190" d="M 83.5,95.5 C 83.5,122.167 83.5,148.833 83.5,175.5C 77.1625,174.344 71.4959,171.844 66.5,168C 62.879,166.862 59.2124,166.028 55.5,165.5C 54.3802,161.695 52.0469,158.695 48.5,156.5C 47.438,154.978 46.7713,153.312 46.5,151.5C 48.376,150.924 50.0427,151.591 51.5,153.5C 54.326,152.42 57.1593,151.42 60,150.5C 60.5758,148.623 60.4091,146.789 59.5,145C 62.3568,136.625 64.6901,128.125 66.5,119.5C 71.162,111.836 75.8287,104.17 80.5,96.5C 81.391,95.8902 82.391,95.5569 83.5,95.5 Z"/></g>
<g><path style="opacity:1" fill="#9296bb" d="M 81.5,34.5 C 82.209,33.596 83.209,33.2627 84.5,33.5C 84.5,81.1667 84.5,128.833 84.5,176.5C 84.5,181.5 84.5,186.5 84.5,191.5C 83.8333,191.5 83.1667,191.5 82.5,191.5C 82.5,191.167 82.5,190.833 82.5,190.5C 83.4872,185.695 83.8205,180.695 83.5,175.5C 83.5,148.833 83.5,122.167 83.5,95.5C 83.5,90.1667 83.5,84.8333 83.5,79.5C 83.5,74.1667 83.5,68.8333 83.5,63.5C 83.5,55.5 83.5,47.5 83.5,39.5C 83.9227,37.2188 83.256,35.5521 81.5,34.5 Z"/></g>
<g><path style="opacity:1" fill="#4644a8" d="M 80.5,96.5 C 75.8287,104.17 71.162,111.836 66.5,119.5C 65.596,120.209 65.2627,121.209 65.5,122.5C 62.033,122.446 59.3663,123.946 57.5,127C 59.8361,128.27 59.8361,129.77 57.5,131.5C 56.2519,130.96 55.0852,130.293 54,129.5C 51.8673,133.939 49.034,138.272 45.5,142.5C 44.675,143.386 43.675,143.719 42.5,143.5C 42.1667,143.5 41.8333,143.5 41.5,143.5C 39.8553,138.921 38.5219,134.254 37.5,129.5C 39.4626,127.721 41.6293,126.054 44,124.5C 44.3333,126.167 44.6667,127.833 45,129.5C 46.7724,126.428 47.939,123.095 48.5,119.5C 55.6523,112.848 62.6523,106.015 69.5,99C 71.9849,99.6228 73.9849,98.6228 75.5,96C 74.8333,95.6667 74.1667,95.3333 73.5,95C 75.0175,93.3149 76.6841,91.8149 78.5,90.5C 79.2945,92.4951 79.9612,94.4951 80.5,96.5 Z"/></g>
<g><path style="opacity:1" fill="#a7a5a5" d="M 177.5,170.5 C 179.137,165.915 181.804,161.915 185.5,158.5C 186.123,156.289 187.123,154.289 188.5,152.5C 188.291,151.914 187.957,151.414 187.5,151C 189.988,148.258 191.821,145.091 193,141.5C 193.33,138.676 194.164,136.009 195.5,133.5C 194.844,131.547 194.511,129.547 194.5,127.5C 197.635,109.569 195.302,92.5695 187.5,76.5C 185.088,71.3413 182.421,66.3413 179.5,61.5C 180.151,60.9094 180.818,60.2427 181.5,59.5C 185.268,64.7005 188.268,70.3672 190.5,76.5C 191.192,75.9747 191.692,75.3081 192,74.5C 193.257,76.6789 194.757,78.6789 196.5,80.5C 195.78,83.8999 196.28,87.2332 198,90.5C 199.543,104.358 199.543,118.358 198,132.5C 195.948,142.942 191.948,152.608 186,161.5C 183.613,164.957 180.78,167.957 177.5,170.5 Z"/></g>
<g><path style="opacity:1" fill="#970202" d="M 139.5,33.5 C 140.791,33.2627 141.791,33.596 142.5,34.5C 141.624,34.3691 140.957,34.7025 140.5,35.5C 140.513,79.9886 140.513,124.655 140.5,169.5C 145.701,167.852 150.701,165.686 155.5,163C 157.253,161.001 158.587,158.835 159.5,156.5C 160.675,156.719 161.675,156.386 162.5,155.5C 165.833,151.833 169.167,148.167 172.5,144.5C 173.325,143.614 174.325,143.281 175.5,143.5C 175.343,142.127 175.51,140.793 176,139.5C 179.855,134.791 182.355,129.458 183.5,123.5C 184.5,123.5 185.5,123.5 186.5,123.5C 188.369,107.852 188.702,92.185 187.5,76.5C 195.302,92.5695 197.635,109.569 194.5,127.5C 187.565,158.323 169.232,179.323 139.5,190.5C 139.5,184.167 139.5,177.833 139.5,171.5C 139.5,125.5 139.5,79.5 139.5,33.5 Z"/></g>
<g><path style="opacity:1" fill="#2c2c9c" d="M 66.5,119.5 C 64.6901,128.125 62.3568,136.625 59.5,145C 60.4091,146.789 60.5758,148.623 60,150.5C 57.1593,151.42 54.326,152.42 51.5,153.5C 50.0427,151.591 48.376,150.924 46.5,151.5C 44.6378,149.109 43.3045,146.442 42.5,143.5C 43.675,143.719 44.675,143.386 45.5,142.5C 49.034,138.272 51.8673,133.939 54,129.5C 55.0852,130.293 56.2519,130.96 57.5,131.5C 59.8361,129.77 59.8361,128.27 57.5,127C 59.3663,123.946 62.033,122.446 65.5,122.5C 65.2627,121.209 65.596,120.209 66.5,119.5 Z"/></g>
<g><path style="opacity:1" fill="#c8c8c8" d="M 139.5,171.5 C 139.5,177.833 139.5,184.167 139.5,190.5C 121.412,196.82 103.079,197.153 84.5,191.5C 84.5,186.5 84.5,181.5 84.5,176.5C 103.378,180.315 121.711,178.648 139.5,171.5 Z"/></g>
<g><path style="opacity:1" fill="#0d0b73" d="M 33.5,139.5 C 34.8195,140.942 36.4862,141.608 38.5,141.5C 37.9557,145.64 38.9557,146.307 41.5,143.5C 41.8333,143.5 42.1667,143.5 42.5,143.5C 43.3045,146.442 44.6378,149.109 46.5,151.5C 46.7713,153.312 47.438,154.978 48.5,156.5C 52.0469,158.695 54.3802,161.695 55.5,165.5C 59.2124,166.028 62.879,166.862 66.5,168C 71.4959,171.844 77.1625,174.344 83.5,175.5C 83.8205,180.695 83.4872,185.695 82.5,190.5C 58.7085,180.52 42.3751,163.52 33.5,139.5 Z"/></g>
<g><path style="opacity:1" fill="#948f8e" d="M 194.5,127.5 C 194.511,129.547 194.844,131.547 195.5,133.5C 194.164,136.009 193.33,138.676 193,141.5C 191.821,145.091 189.988,148.258 187.5,151C 187.957,151.414 188.291,151.914 188.5,152.5C 187.123,154.289 186.123,156.289 185.5,158.5C 181.804,161.915 179.137,165.915 177.5,170.5C 175.82,173.329 173.32,175.329 170,176.5C 168.562,177.9 167.729,179.567 167.5,181.5C 166.127,181.343 164.793,181.51 163.5,182C 163.833,182.333 164.167,182.667 164.5,183C 158.087,185.082 152.421,188.416 147.5,193C 141.48,194.538 135.48,196.205 129.5,198C 113.005,200.283 97.3384,198.117 82.5,191.5C 83.1667,191.5 83.8333,191.5 84.5,191.5C 103.079,197.153 121.412,196.82 139.5,190.5C 169.232,179.323 187.565,158.323 194.5,127.5 Z"/></g>
</svg>
