<?xml version="1.0" standalone="no"?>
<!DOCTYPE svg PUBLIC "-//W3C//DTD SVG 20010904//EN"
 "http://www.w3.org/TR/2001/REC-SVG-20010904/DTD/svg10.dtd">
<svg version="1.0" xmlns="http://www.w3.org/2000/svg"
 width="512.000000pt" height="512.000000pt" viewBox="0 0 512.000000 512.000000"
 preserveAspectRatio="xMidYMid meet">

<g transform="translate(0.000000,512.000000) scale(0.100000,-0.100000)"
fill="#000000" stroke="none">
<path d="M400 5103 c-35 -12 -80 -51 -206 -177 -142 -142 -163 -167 -179 -215
-20 -61 -16 -131 11 -183 9 -18 96 -163 193 -321 110 -181 187 -297 206 -310
45 -33 157 -31 204 2 l33 24 619 -619 c340 -340 619 -621 619 -624 0 -4 -387
-349 -860 -769 -758 -673 -865 -771 -909 -836 -302 -452 17 -1055 559 -1055
146 0 302 53 416 141 29 22 355 382 725 799 l674 760 805 -804 805 -804 85
-41 c111 -54 209 -75 321 -68 227 14 429 147 529 349 94 192 91 389 -8 583
-32 64 -104 138 -866 903 l-831 832 32 31 31 31 63 -22 c128 -44 246 -63 394
-63 159 -1 248 12 385 55 193 62 348 156 496 303 243 241 364 529 364 868 0
252 -38 375 -129 424 -48 25 -120 30 -168 13 -15 -6 -156 -139 -313 -295 -157
-156 -296 -288 -310 -293 -14 -5 -34 -6 -45 -2 -11 5 -113 102 -227 217 -174
175 -208 214 -208 238 0 25 45 74 294 324 281 283 294 298 305 347 19 78 -8
154 -71 203 -56 44 -261 77 -428 68 -435 -23 -820 -269 -1029 -657 -50 -94
-105 -258 -126 -374 -31 -183 -14 -419 45 -594 l28 -82 -123 -110 c-68 -61
-127 -110 -132 -110 -4 0 -293 285 -642 634 l-634 634 24 33 c33 47 35 159 2
204 -19 27 -489 324 -622 394 -57 30 -141 36 -201 14z m133 -139 c39 -20 475
-286 534 -326 24 -16 43 -36 43 -45 0 -9 -21 -38 -46 -65 -38 -41 -45 -54 -39
-76 4 -18 229 -250 671 -692 365 -366 664 -668 664 -671 0 -6 -316 -290 -339
-303 -10 -6 -194 172 -670 647 -435 436 -665 658 -683 662 -22 6 -35 -1 -76
-39 -27 -25 -58 -46 -68 -46 -14 0 -64 74 -194 287 -96 157 -179 295 -183 306
-18 46 4 80 135 214 119 121 172 162 206 163 7 0 27 -7 45 -16z m3527 -6 c82
-13 110 -30 110 -66 0 -22 -50 -77 -281 -307 -154 -154 -289 -297 -300 -317
-25 -49 -25 -136 0 -186 11 -20 122 -139 248 -263 216 -215 231 -227 280 -239
57 -13 99 -7 153 21 19 9 161 144 315 298 189 190 287 281 301 281 58 0 79
-86 78 -310 0 -147 -3 -176 -28 -265 -83 -305 -284 -555 -556 -694 -170 -87
-313 -121 -502 -121 -147 1 -243 17 -363 60 -133 48 -146 48 -188 8 -19 -18
-266 -294 -548 -613 -1105 -1248 -1697 -1912 -1745 -1954 -61 -54 -149 -97
-240 -116 -87 -18 -121 -18 -209 0 -292 62 -475 343 -414 637 16 75 61 166
111 223 39 44 512 466 2075 1853 287 255 525 472 528 482 3 11 -9 60 -28 112
-59 158 -72 233 -71 408 1 132 5 169 27 251 55 207 150 375 293 516 255 253
592 359 954 301z m864 -4108 c92 -195 56 -412 -93 -561 -102 -101 -225 -146
-381 -136 -93 5 -163 28 -238 76 -26 17 -399 383 -830 813 l-782 783 326 369
327 368 818 -819 c798 -798 819 -820 853 -893z"/>
<path d="M602 957 c-48 -15 -127 -89 -153 -145 -28 -57 -30 -156 -5 -215 22
-51 81 -114 130 -140 58 -31 184 -31 242 0 97 52 148 137 149 248 0 60 -4 78
-31 125 -35 62 -96 114 -152 130 -46 12 -136 11 -180 -3z m185 -171 c28 -31
33 -43 33 -87 0 -44 -4 -55 -33 -84 -61 -61 -154 -53 -197 17 -80 131 94 267
197 154z"/>
<path d="M3230 2150 c-12 -12 -20 -33 -20 -53 0 -29 55 -87 643 -675 617 -616
645 -643 677 -640 41 4 75 45 67 80 -4 12 -296 312 -649 666 -688 687 -669
671 -718 622z"/>
<path d="M2970 1890 c-49 -49 -65 -30 623 -718 353 -353 653 -645 665 -649 35
-8 76 26 80 67 3 32 -23 60 -640 677 -586 586 -646 643 -676 643 -19 0 -40 -8
-52 -20z"/>
</g>
</svg>
