<?xml version="1.0" encoding="UTF-8"?>
<!DOCTYPE svg PUBLIC "-//W3C//DTD SVG 1.1//EN" "http://www.w3.org/Graphics/SVG/1.1/DTD/svg11.dtd">
<!-- Creator: CorelDRAW 2017 -->
<svg xmlns="http://www.w3.org/2000/svg" xml:space="preserve" width="356px" height="200px" version="1.1" style="shape-rendering:geometricPrecision; text-rendering:geometricPrecision; image-rendering:optimizeQuality; fill-rule:evenodd; clip-rule:evenodd"
viewBox="0 0 356000 200000"
 xmlns:xlink="http://www.w3.org/1999/xlink">
 <defs>
  <style type="text/css">
   <![CDATA[
    .fil6 {fill:#5C8B2B}
    .fil7 {fill:#85AD23}
    .fil9 {fill:#91A300}
    .fil8 {fill:#B1C501}
    .fil3 {fill:#D4961F}
    .fil4 {fill:#E5AE0D}
    .fil0 {fill:#E6E7E8}
    .fil5 {fill:#FEC900}
    .fil10 {fill:#373435;fill-rule:nonzero}
    .fil11 {fill:#ED3237;fill-rule:nonzero}
    .fil2 {fill:#373435;fill-opacity:0.031373}
    .fil1 {fill:#373435;fill-opacity:0.101961}
   ]]>
  </style>
 </defs>
 <g id="Layer_x0020_1">
  <metadata id="CorelCorpID_0Corel-Layer"/>
  <polygon class="fil0" points="0,0 356000,0 356000,200000 0,200000 "/>
  <path class="fil1" d="M178890 200000l-6410 0 -3320 0 -4660 0 -3150 0 -900 0 -890 0 -630 0 -6260 0 -1420 0 -4900 0 -1870 0 -230 0 -300 0 -610 0 -5060 0 -130 0 -3970 0 -350 0 -3510 0 -170 0 -600 0 -130 0 -3200 0 -7190 0 -2020 0 -1370 0 -3770 0 -690 0 -810 0 -4420 0 -570 0 -1660 0 -1270 0 -180 0 -590 0 -3860 0 -220 0 -2170 0 -810 0 -2430 0 -750 0 -1140 0 -460 0 -3710 0 -620 0 -3430 0 -2590 0 -480 0 -20 0 -750 0 -180 0 -3320 0 -1430 0 -2890 0 -880 0 -370 0 -1800 0 -3030 0 -40 0 -440 0 -4910 0 -8140 0 -5630 0 -2670 0 -530 0 -1050 0 -740 0 -530 0 -170 0 -780 0 -1570 0 -370 0 -5010 0 -910 0 -4420 0 -19270 0 -600 0 -420 0 -3140 0 -870 0 -90 0 -610 0 -840 0 0 0 -240 0 -350 0 0 -570 0 -8690 0 -220 0 -10300 0 -100 0 -10 0 -500 0 -8450 0 -10690 0 -80 0 -10 0 0 158250 -92550 10 10 8990 -5260 10780 -6220 10520 6380 -19590 11270 9040 5210 19550 -11080 -19550 11090 0 22440 -22480 12350 770 440 42950 -23560 -19680 11930 18990 11510 21520 -11430 -20680 11930 0 10 0 23000 32520 -16660 -12700 7330 11870 6840 13230 -6650 -12490 7070 0 14350 -30550 14990 350 100 700 190 540 140 490 120 440 120 250 60 21920 -10720 -160 410 -200 390 -220 380 -260 370 -290 350 -320 350 -350 320 -380 320 -390 300 -390 270 -370 250 -380 220 -360 200 -1050 510 0 2620 4470 -2170 0 1560 12590 -6100 -580 310 -550 380 -510 450 -470 510 -430 600 -380 680 -310 770 -260 850 -100 450 5020 -2420 240 -110 250 -80 260 -40 270 -20 200 10 190 20 180 40 180 50 160 70 150 90 150 100 130 110 120 130 110 150 100 170 90 180 70 200 70 220 40 230 40 250 3360 -370 -11720 5610 10 420 80 1090 0 30 5230 -2490 220 -90 230 -60 230 -40 250 -10 250 10 240 40 230 70 230 90 210 110 200 140 180 170 180 190 160 220 140 250 120 280 100 310 80 340 50 370 30 400 10 420 -10 420 -30 380 -50 360 -70 320 -90 300 -110 260 -130 230 -150 210 -160 170 -180 160 -180 130 -200 100 -4350 2060 250 180 550 300 580 230 600 170 640 100 670 30 620 -30 600 -80 560 -130 540 -180 510 -240 -57570 27020 -6580 0zm-178890 -40300l0 -100 0 -12010 0 -330 0 -250 0 -12600 165520 -100730 12610 7270 12490 -7070 -12490 7450 0 13970 12490 -7210 -190620 111610z"/>
  <path class="fil2" d="M21020 175160c670,1030 1110,2020 1550,3110 310,640 480,1830 1980,1830 440,0 1070,-150 1630,-450 630,-330 1110,-820 1350,-1590l610 -2010 1450 -720 100 100c-190,760 -240,1480 -240,2060 0,1690 1450,2330 2620,2330 680,0 1280,-330 1280,-950 0,-810 -340,-2160 -780,-3380 680,-680 1360,-1360 2140,-1910l120 60c340,1440 530,2860 530,3810 0,920 -410,1950 -750,2630 -700,1310 -1940,2360 -3440,2360 -1140,0 -2400,-570 -3270,-1630l-50 0c-830,1010 -2090,1940 -4120,1940l-630 0c-100,1340 -390,2290 -820,3130 -1220,2360 -4800,4030 -8170,4030 -4700,0 -7050,-2710 -7050,-6310 0,-2230 720,-4300 1840,-5760l920 370c-700,1340 -1160,2600 -1160,3840 0,3380 2740,4990 5910,4990 2930,0 6570,-1880 7220,-4040 -240,-2360 -1140,-3470 -2500,-5640 420,-720 950,-1440 1600,-2200l130 0 0 0zm54140 -12710c990,620 1960,1360 2900,2200 -530,740 -1180,1420 -2010,2010 -940,-760 -1890,-1420 -2860,-2120 660,-730 1310,-1450 1970,-2090zm510 9240c-1600,0 -2910,1040 -2910,1820 0,1670 3200,2190 7020,2170 -480,-1960 -2150,-3990 -4110,-3990zm-3590 8920c2080,0 3900,-60 5280,-400 1550,-390 2860,-1180 2860,-1710 0,-150 0,-310 -50,-460 -870,90 -1860,90 -2740,90 -2810,0 -4960,-640 -5810,-2230 -220,-430 -360,-930 -360,-1480 0,-1530 650,-3020 1810,-4050 970,-840 2040,-1380 3130,-1380 1960,0 3540,1590 4630,4070 600,1360 1010,2920 1010,4900 0,1320 -360,2420 -1180,3250 -1530,1480 -4340,2040 -8650,2040l-1970 0 0 0 -510 0c-1060,0 -1840,-190 -2440,-660l-100 0c20,240 50,490 50,720 0,970 -320,2200 -970,3190 -1920,2850 -4000,4090 -5790,4090 -1820,0 -4050,-700 -6060,-1610l360 -690c660,260 1550,440 2790,440 3250,0 7510,-3120 8040,-6160 -120,-250 -330,-580 -650,-930 -940,-1130 -1550,-2070 -2110,-3060 490,-950 920,-1710 1340,-2390l160 -20c1390,2820 2650,4440 5460,4440l430 0 0 0 2040 0 0 0zm-14060 2990c240,-1300 260,-2760 260,-4110l0 -2020c0,-3770 -480,-9240 -870,-12800 680,-750 1630,-1600 2380,-2180l210 60c510,4480 640,9690 640,14480 0,1260 -50,2500 -170,3390 -80,1140 -730,2000 -2140,3320l-310 -140 0 0zm-14470 -5950c70,1770 940,3160 3970,3160 1890,0 3490,-490 5260,-1320 310,-150 480,-330 480,-500 0,-1110 -840,-2570 -2280,-3910 -1380,-1260 -3220,-2370 -4940,-3100 -580,-250 -770,-520 -770,-760 0,-520 680,-1590 1230,-2350l200 -20c1960,1030 4160,2550 5790,4250 1480,1570 2400,3150 2400,4880 0,1280 -390,2490 -1020,3600 -2160,1090 -4460,1910 -6740,1910 -2760,0 -4650,-1290 -4650,-4330 0,-330 0,-850 120,-1510l950 0 0 0zm-5000 -5020l1720 2780c630,1030 1210,2140 1210,3910l0 2260c0,1830 -1170,3790 -3060,5720 -1470,1310 -2780,1870 -3990,1870 -1800,0 -3860,-560 -6230,-1590l260 -690c760,210 1630,370 2700,370 3410,-20 6900,-2510 8500,-5560 190,-350 270,-680 270,-910 0,-350 -200,-730 -340,-1080 -870,-1650 -1840,-3150 -2910,-4530 560,-880 1110,-1730 1720,-2570l150 20 0 0z"/>
  <g id="_2301271942880">
   <g>
    <polygon class="fil3" points="124290,135780 136790,128710 136790,142930 124290,150130 "/>
    <polygon class="fil4" points="111690,143020 124290,150130 124290,135780 111690,128520 "/>
    <polygon class="fil5" points="124290,135780 111690,128520 124380,121190 136790,128710 124290,135780 "/>
    <polygon class="fil3" points="231820,135780 244310,128710 244310,142930 231820,150130 "/>
    <polygon class="fil4" points="219210,143020 231820,150130 231820,135780 219210,128520 "/>
    <polygon class="fil5" points="231820,135780 219210,128520 231910,121190 244310,128710 231820,135780 "/>
    <polygon class="fil3" points="178030,127480 198520,115880 198520,139200 178030,151020 "/>
    <polygon class="fil4" points="157330,139350 178030,151020 178030,127480 157330,115550 "/>
    <polygon class="fil5" points="178030,127480 157330,115550 178170,103540 198520,115880 178030,127480 "/>
    <polygon class="fil4" points="135730,126410 156420,138070 156420,114540 135730,102610 135730,126410 "/>
    <polygon class="fil5" points="156420,114540 135730,102610 156500,91380 176510,102680 156420,114540 "/>
    <polygon class="fil3" points="220070,126710 199390,138380 199390,114840 220070,102910 "/>
    <polygon class="fil5" points="199390,114850 220070,102910 199240,90900 179560,102830 199390,114850 "/>
    <polygon class="fil6" points="178000,79220 197550,68140 197550,90390 178000,101670 "/>
    <polygon class="fil7" points="158250,90540 178000,101670 178000,79220 158250,67830 "/>
    <polygon class="fil8" points="178000,79220 158250,67830 178130,56360 197550,68140 "/>
    <polygon class="fil3" points="178130,40950 190620,33880 190620,48090 178130,55300 "/>
    <polygon class="fil4" points="165520,48190 178130,55300 178130,40950 165520,33680 "/>
    <polygon class="fil5" points="178130,40950 165520,33680 178230,26360 190620,33880 178130,40950 "/>
    <polygon class="fil9" points="177950,68750 167250,62580 178030,56360 188550,62740 "/>
   </g>
   <g>
    <path class="fil10" d="M115340 173310l0 -15020 -5360 0 0 -3060 14340 0 0 3060 -5320 0 0 15020 -3660 0zm11350 0l0 -18080 7690 0c1930,0 3340,170 4210,490 880,330 1580,900 2110,1730 520,830 790,1780 790,2850 0,1360 -400,2480 -1190,3360 -800,890 -1990,1440 -3570,1670 790,460 1440,970 1950,1520 510,550 1200,1530 2070,2940l2200 3520 -4360 0 -2620 -3950c-940,-1400 -1580,-2280 -1930,-2650 -350,-360 -710,-610 -1100,-750 -390,-130 -1000,-200 -1850,-200l-740 0 0 7550 -3660 0zm3660 -10430l2700 0c1750,0 2840,-70 3280,-220 440,-150 780,-400 1020,-760 250,-370 380,-820 380,-1360 0,-610 -170,-1100 -490,-1480 -330,-370 -790,-610 -1370,-710 -300,-40 -1190,-60 -2670,-60l-2850 0 0 4590zm14570 10430l0 -18080 3550 0 7440 12120 0 -12120 3380 0 0 18080 -3660 0 -7320 -11880 0 11880 -3390 0zm17280 -5860l3560 -350c210,1190 640,2060 1290,2620 660,560 1540,840 2640,840 1170,0 2050,-250 2650,-750 590,-490 890,-1070 890,-1740 0,-430 -130,-790 -370,-1090 -250,-300 -690,-560 -1310,-780 -430,-150 -1390,-410 -2910,-790 -1950,-490 -3320,-1090 -4100,-1800 -1110,-1000 -1660,-2210 -1660,-3650 0,-920 260,-1780 780,-2590 520,-800 1270,-1410 2250,-1830 980,-420 2160,-630 3550,-630 2260,0 3960,500 5100,1500 1140,1010 1740,2350 1800,4030l-3660 120c-160,-930 -490,-1600 -1000,-2010 -510,-410 -1270,-610 -2290,-610 -1050,0 -1880,220 -2470,650 -380,280 -580,660 -580,1130 0,430 180,790 550,1100 450,390 1570,790 3340,1210 1770,420 3080,860 3930,1300 850,450 1510,1060 1990,1840 480,780 720,1740 720,2880 0,1040 -280,2010 -860,2910 -580,910 -1390,1580 -2440,2020 -1050,440 -2370,660 -3940,660 -2280,0 -4040,-530 -5260,-1580 -1220,-1050 -1950,-2590 -2190,-4610zm22540 5860l0 -7610 -6620 -10470 4270 0 4280 7160 4160 -7160 4200 0 -6630 10500 0 7580 -3660 0zm11140 -5860l3560 -350c210,1190 640,2060 1290,2620 650,560 1530,840 2640,840 1170,0 2050,-250 2650,-750 590,-490 890,-1070 890,-1740 0,-430 -130,-790 -380,-1090 -240,-300 -680,-560 -1300,-780 -430,-150 -1400,-410 -2910,-790 -1950,-490 -3320,-1090 -4100,-1800 -1110,-1000 -1660,-2210 -1660,-3650 0,-920 260,-1780 780,-2590 520,-800 1270,-1410 2250,-1830 980,-420 2160,-630 3550,-630 2250,0 3960,500 5100,1500 1140,1010 1740,2350 1800,4030l-3660 120c-160,-930 -490,-1600 -1000,-2010 -510,-410 -1270,-610 -2290,-610 -1050,0 -1880,220 -2470,650 -380,280 -580,660 -580,1130 0,430 180,790 550,1100 450,390 1570,790 3340,1210 1770,420 3080,860 3930,1300 850,450 1510,1060 1990,1840 480,780 720,1740 720,2880 0,1040 -290,2010 -860,2910 -580,910 -1390,1580 -2440,2020 -1060,440 -2370,660 -3940,660 -2280,0 -4040,-530 -5260,-1580 -1230,-1050 -1950,-2590 -2190,-4610z"/>
    <path class="fil11" d="M228770 173310l-3460 0 0 -13090c-1260,1190 -2750,2070 -4470,2640l0 -3160c910,-290 1890,-850 2940,-1680 1060,-830 1790,-1790 2180,-2890l2810 0 0 18180zm16920 -13650l-3360 370c-80,-690 -300,-1200 -640,-1530 -340,-320 -790,-490 -1340,-490 -730,0 -1350,330 -1860,990 -500,650 -820,2020 -950,4100 860,-1020 1930,-1530 3220,-1530 1440,0 2680,550 3710,1660 1030,1100 1550,2520 1550,4270 0,1850 -550,3340 -1630,4460 -1090,1120 -2480,1680 -4180,1680 -1820,0 -3320,-710 -4500,-2130 -1170,-1430 -1760,-3750 -1760,-6990 0,-3320 610,-5720 1840,-7190 1220,-1460 2810,-2200 4770,-2200 1370,0 2510,390 3410,1160 900,770 1470,1900 1720,3370zm-7850 7570c0,1120 260,2000 770,2610 520,610 1110,920 1780,920 640,0 1170,-250 1600,-750 430,-510 640,-1330 640,-2480 0,-1170 -230,-2040 -690,-2590 -460,-550 -1030,-820 -1720,-820 -670,0 -1230,260 -1690,790 -460,520 -690,1290 -690,2320z"/>
   </g>
  </g>
 </g>
</svg>
